<mxfile>
    <diagram id="KSI4rd2_mFsdPOlrpcxg" name="Page-1">
        <mxGraphModel dx="1118" dy="790" grid="1" gridSize="10" guides="1" tooltips="1" connect="1" arrows="1" fold="1" page="1" pageScale="1" pageWidth="850" pageHeight="1100" math="0" shadow="0">
            <root>
                <mxCell id="0"/>
                <mxCell id="1" parent="0"/>
                <mxCell id="2" value="" style="strokeWidth=1;shadow=0;dashed=0;align=center;html=1;shape=mxgraph.mockup.containers.browserWindow;rSize=0;strokeColor=#666666;strokeColor2=#008cff;strokeColor3=#c4c4c4;mainText=,;recursiveResize=0;" vertex="1" parent="1">
                    <mxGeometry y="10" width="850" height="570" as="geometry"/>
                </mxCell>
                <mxCell id="3" value="Page 1" style="strokeWidth=1;shadow=0;dashed=0;align=center;html=1;shape=mxgraph.mockup.containers.anchor;fontSize=17;fontColor=#666666;align=left;" vertex="1" parent="2">
                    <mxGeometry x="60" y="12" width="110" height="26" as="geometry"/>
                </mxCell>
                <mxCell id="4" value="https://www.draw.io" style="strokeWidth=1;shadow=0;dashed=0;align=center;html=1;shape=mxgraph.mockup.containers.anchor;rSize=0;fontSize=17;fontColor=#666666;align=left;" vertex="1" parent="2">
                    <mxGeometry x="130" y="60" width="250" height="26" as="geometry"/>
                </mxCell>
                <mxCell id="5" value="" style="html=1;shadow=0;dashed=0;fillColor=#343A40;strokeColor=none;fontSize=16;fontColor=#ffffff;align=left;spacing=15;" vertex="1" parent="2">
                    <mxGeometry x="25" y="140" width="800" height="60" as="geometry"/>
                </mxCell>
                <mxCell id="6" value="View" style="fillColor=none;strokeColor=none;fontSize=14;fontColor=#ffffff;align=center;" vertex="1" parent="5">
                    <mxGeometry width="70" height="40" relative="1" as="geometry">
                        <mxPoint x="70" y="10" as="offset"/>
                    </mxGeometry>
                </mxCell>
                <mxCell id="7" value="Create" style="fillColor=none;strokeColor=none;fontSize=14;align=center;fontColor=#FFFFFF;" vertex="1" parent="5">
                    <mxGeometry width="70" height="40" relative="1" as="geometry">
                        <mxPoint x="140" y="10" as="offset"/>
                    </mxGeometry>
                </mxCell>
                <mxCell id="8" value="Logout" style="fillColor=none;strokeColor=none;fontSize=14;align=center;spacingRight=0;fontColor=#FFFFFF;" vertex="1" parent="5">
                    <mxGeometry width="80" height="40" relative="1" as="geometry">
                        <mxPoint x="210" y="10" as="offset"/>
                    </mxGeometry>
                </mxCell>
                <mxCell id="11" value="Watermelon Squad" style="rounded=1;arcSize=9;fillColor=#F7F8F9;align=left;spacingLeft=5;strokeColor=#DEE1E6;html=1;strokeWidth=2;fontSize=12" vertex="1" parent="2">
                    <mxGeometry x="40" y="280" width="190" height="40" as="geometry"/>
                </mxCell>
                <mxCell id="12" value="Amount" style="text;html=1;strokeColor=none;fillColor=none;align=center;verticalAlign=middle;whiteSpace=wrap;rounded=0;" vertex="1" parent="2">
                    <mxGeometry x="40" y="250" width="40" height="20" as="geometry"/>
                </mxCell>
                <mxCell id="14" value="Watermelon Squad" style="rounded=1;arcSize=9;fillColor=#F7F8F9;align=left;spacingLeft=5;strokeColor=#DEE1E6;html=1;strokeWidth=2;fontSize=12" vertex="1" parent="2">
                    <mxGeometry x="290" y="280" width="310" height="170" as="geometry"/>
                </mxCell>
                <mxCell id="15" value="Reason for reimbursement" style="text;html=1;strokeColor=none;fillColor=none;align=center;verticalAlign=middle;whiteSpace=wrap;rounded=0;" vertex="1" parent="2">
                    <mxGeometry x="290" y="250" width="160" height="20" as="geometry"/>
                </mxCell>
                <mxCell id="16" value="Submit" style="rounded=1;html=1;align=center;verticalAlign=middle;fontStyle=0;fontSize=12;" vertex="1" parent="2">
                    <mxGeometry x="514" y="480" width="86" height="33" as="geometry"/>
                </mxCell>
            </root>
        </mxGraphModel>
    </diagram>
</mxfile>